<svg width="24" height="24" viewBox="0 0 24 24" fill="none" xmlns="http://www.w3.org/2000/svg">
  <circle cx="12" cy="12" r="10" fill="#f59e0b"/>
  <path d="M12 5C12.5523 5 13 5.44772 13 6V8C13 8.55228 12.5523 9 12 9C11.4477 9 11 8.55228 11 8V6C11 5.44772 11.4477 5 12 5Z" fill="white"/>
  <path d="M7 9.5C7.55228 9.5 8 9.94772 8 10.5V12.5C8 13.0523 7.55228 13.5 7 13.5C6.44772 13.5 6 13.0523 6 12.5V10.5C6 9.94772 6.44772 9.5 7 9.5Z" fill="white"/>
  <path d="M17 9.5C17.5523 9.5 18 9.94772 18 10.5V12.5C18 13.0523 17.5523 13.5 17 13.5C16.4477 13.5 16 13.0523 16 12.5V10.5C16 9.94772 16.4477 9.5 17 9.5Z" fill="white"/>
  <path d="M9 15C9 13.8954 9.89543 13 11 13H13C14.1046 13 15 13.8954 15 15C15 16.1046 14.1046 17 13 17H11C9.89543 17 9 16.1046 9 15Z" fill="white"/>
  <path d="M12 18C12.5523 18 13 18.4477 13 19C13 19.5523 12.5523 20 12 20C11.4477 20 11 19.5523 11 19C11 18.4477 11.4477 18 12 18Z" fill="white"/>
</svg>
