<svg xmlns="http://www.w3.org/2000/svg" width="32" height="32" viewBox="0 0 40 40">
    <!-- Digital Twin Grid Background -->
    <defs>
        <pattern id="grid" width="4" height="4" patternUnits="userSpaceOnUse">
            <path d="M 4 0 L 0 0 0 4" fill="none" stroke="#F59E0B" strokeWidth="0.2" opacity="0.3" />
        </pattern>
    </defs>
    <rect width="40" height="40" fill="url(#grid)" opacity="0.4" />

    <!-- Outer Digital Ring -->
    <circle cx="20" cy="20" r="18" fill="none" stroke="#3B82F6" strokeWidth="1.5" strokeDasharray="3,2" opacity="0.8" />

    <!-- Data Flow Rings -->
    <circle cx="20" cy="20" r="14" fill="none" stroke="#10B981" strokeWidth="1" strokeDasharray="2,1" opacity="0.6" />
    <circle cx="20" cy="20" r="10" fill="none" stroke="#F59E0B" strokeWidth="0.8" strokeDasharray="1.5,1" opacity="0.5" />

    <!-- Digital Twin Bees - Physical & Virtual -->
    <g id="physicalBee">
        <!-- Physical Bee (Left) -->
        <ellipse cx="15" cy="20" rx="3" ry="4" fill="#FDE047" stroke="#F59E0B" strokeWidth="0.5" />
        <line x1="13" y1="18" x2="17" y2="18" stroke="#B45309" strokeWidth="0.8" />
        <line x1="13" y1="20" x2="17" y2="20" stroke="#B45309" strokeWidth="0.8" />
        <line x1="13" y1="22" x2="17" y2="22" stroke="#B45309" strokeWidth="0.8" />

        <!-- Physical Wings -->
        <ellipse cx="12" cy="17" rx="2" ry="1.5" fill="#60A5FA" opacity="0.7" />
        <ellipse cx="18" cy="17" rx="2" ry="1.5" fill="#60A5FA" opacity="0.7" />

        <!-- Physical Head -->
        <circle cx="15" cy="16" r="1.5" fill="#F59E0B" />
        <circle cx="15" cy="16" r="0.8" fill="#DC2626" />
    </g>

    <g id="virtualBee">
        <!-- Virtual Bee (Right) - Wireframe Style -->
        <ellipse cx="25" cy="20" rx="3" ry="4" fill="none" stroke="#3B82F6" strokeWidth="1.2" strokeDasharray="0.8,0.8" />
        <line x1="23" y1="18" x2="27" y2="18" stroke="#3B82F6" strokeWidth="0.8" strokeDasharray="0.5,0.5" />
        <line x1="23" y1="20" x2="27" y2="20" stroke="#3B82F6" strokeWidth="0.8" strokeDasharray="0.5,0.5" />
        <line x1="23" y1="22" x2="27" y2="22" stroke="#3B82F6" strokeWidth="0.8" strokeDasharray="0.5,0.5" />

        <!-- Virtual Wings -->
        <ellipse cx="22" cy="17" rx="2" ry="1.5" fill="none" stroke="#3B82F6" strokeWidth="0.8" strokeDasharray="0.5,0.5" />
        <ellipse cx="28" cy="17" rx="2" ry="1.5" fill="none" stroke="#3B82F6" strokeWidth="0.8" strokeDasharray="0.5,0.5" />

        <!-- Virtual Head -->
        <circle cx="25" cy="16" r="1.5" fill="none" stroke="#3B82F6" strokeWidth="1" />
        <circle cx="25" cy="16" r="0.8" fill="#3B82F6" opacity="0.6" />
    </g>

    <!-- Digital Twin Connection -->
    <path d="M18 20 L22 20" stroke="#10B981" strokeWidth="2" strokeDasharray="2,1" opacity="0.8" />

    <!-- Data Nodes -->
    <circle cx="8" cy="8" r="1.5" fill="#10B981" />
    <circle cx="32" cy="8" r="1.5" fill="#3B82F6" />
    <circle cx="8" cy="32" r="1.5" fill="#10B981" />
    <circle cx="32" cy="32" r="1.5" fill="#3B82F6" />

    <!-- IoT Sensors -->
    <circle cx="6" cy="20" r="1" fill="#EF4444" />
    <circle cx="34" cy="20" r="1" fill="#EF4444" />
    <circle cx="20" cy="6" r="1" fill="#EF4444" />
    <circle cx="20" cy="34" r="1" fill="#EF4444" />
</svg>
